<?xml version="1.0" encoding="UTF-8"?>
<!-- Created with Inkscape (http://www.inkscape.org/) -->
<svg width="1294.8" height="168.21" version="1.1" viewBox="0 0 342.57 44.507" xmlns="http://www.w3.org/2000/svg">
 <g transform="translate(-426.06 -30.113)">
  <path d="m463.83 30.252c-1.7216 0.43436-2.1778 2.9908-0.508 3.8335 1.0826 0.5463 2.7071 0.32527 3.8947 0.56446 2.3156 0.46636 4.4506 1.2965 6.4347 2.587 9.3296 6.0686 10.824 18.84 3.6877 27.15-5.184 6.0362-14.242 7.7143-21.298 4.1863-1.9773-0.98857-3.7357-2.4154-5.2446-4.0169-0.97231-1.0321-1.9124-2.4208-3.5607-1.7545-3.4148 1.3802 1.2712 5.5507 2.54 6.5993 4.2648 3.5245 10.16 5.6879 15.748 5.1318 13.66-1.3597 22.86-14.028 19.915-27.418-1.6921-7.695-8.052-14.223-15.682-16.148-1.7186-0.43361-4.1639-1.1598-5.9267-0.71496m-36.576 0.35277c-1.8442 0.66751-1.4111 3.4511 0.33867 3.9088 2.0585 0.53846 4.8143 0.07056 6.9427 0.07056h14.563c1.8552 0 5.7279 0.7312 7.2673-0.42333 1.2773-0.95794 0.8089-3.3986-0.83261-3.6266-2.0615-0.28631-4.3519-0.01411-6.4347-0.01411h-19.135c-0.81667 0-1.9336-0.19609-2.7093 0.08467m34.205 8.89c0 1.0465 0.40302 3.1355-0.12226 4.0499-0.44907 0.78164-1.904 1.2598-2.5871 1.8908-1.8344 1.6947-2.8787 4.4487-2.8787 6.9286 0 2.5226 1.0465 5.1957 2.8787 6.9379 0.68986 0.656 2.0997 1.1293 2.5871 1.9097 0.53425 0.85598 0.12226 3.019 0.12226 4.0217h1.8627l0.16933-3.556 2.7093 0.33867v3.2173h1.8627v-3.556c1.9973-0.10075 3.7204-1.3498 5.08-2.7093v-0.16933c-0.49868-0.49869-1.3015-1.6842-2.032-1.7875-0.70544-0.09957-1.7201 1.1129-2.3707 1.4065-1.4437 0.65176-3.2366 0.71611-4.7413 0.26348-6.067-1.8258-6.0657-10.795 0-12.634 1.5386-0.46651 3.2675-0.36 4.7413 0.29176 0.64854 0.28668 1.6703 1.4771 2.3707 1.3782 0.73051-0.10329 1.5333-1.2888 2.032-1.7875v-0.16933c-1.3877-1.3818-3.09-2.5004-5.08-2.7093v-3.556h-1.8627c0 0.74896 0.36152 2.8168-0.35747 3.2644-0.54254 0.3377-1.704 0.16915-2.3519 0.29163l-0.16933-3.556h-1.8627m42.503 0.91252c-2.3764 0.39055-4.6286 0.8755-6.604 2.3754-5.4724 4.155-6.2337 13.169-1.1713 18.011 4.009 3.8337 10.577 4.4569 15.395 1.8579 0.66277-0.35746 2.8546-1.5621 2.5683-2.4977-0.15681-0.51206-0.83922-0.86241-1.2136-1.1994-0.34865-0.31411-0.83413-1.0583-1.3547-1.0583-0.5991 0-1.366 1.014-1.8627 1.3359-1.154 0.74794-2.5363 1.1112-3.8947 1.2465-6.0361 0.6008-10.069-5.8049-8.1844-11.162 1.4654-4.1653 6.3314-6.0976 10.386-4.7931 0.9039 0.29092 3.2393 2.3942 3.8947 2.0227 0.49293-0.27957 2.2577-1.7211 2.2577-2.3095 0-0.88985-1.7585-1.8489-2.427-2.2296-2.2247-1.2668-5.2258-2.0206-7.7893-1.5993m23.537 0c-2.552 0.41942-4.8822 1.0448-6.9427 2.7093-5.4805 4.4276-5.5181 13.387-0.33866 18.039 2.9591 2.6577 7.1772 3.4312 11.007 2.8551 1.733-0.26077 3.4366-0.87782 4.9107-1.8298 10.49-6.7747 3.5794-23.781-8.636-21.773m202.18 0c-2.4486 0.40247-4.7837 0.93658-6.7733 2.54-5.8386 4.7029-5.8386 13.961 0 18.664 2.899 2.3358 6.9122 2.9386 10.499 2.3989 1.6612-0.24994 3.3325-0.85547 4.7413-1.7687 10.422-6.7547 3.9048-23.868-8.4667-21.835m-183.73 0.27281v23.199h4.2333v-23.199h-4.2333m10.499 0v23.199h4.2333v-15.579l9.0781 11.007 3.6877 4.4497 3.6595 0.12226v-23.199h-4.2333v15.579l-2.8882-3.3867-6.3593-7.7893-3.6219-4.2804-3.556-0.12229m26.924 0v23.199h4.2333v-23.199h-4.2333m10.499 0v23.199h4.2333v-15.579l8.9086 10.837 3.8286 4.6191 3.5188 0.12226v-23.199h-4.2333v15.579l-8.9645-11.007-3.7406-4.4497-3.5509-0.12229m23.876 0v3.556h7.62v19.643h4.2333v-14.393c0-1.0499-0.53171-4.2658 0.22521-5.0236 0.41995-0.41944 1.4343-0.22572 1.9761-0.22572h5.588v-3.556h-19.643m22.86 0v23.199h17.441v-3.556h-9.652l-3.3308-0.22572-0.22521-1.6369v-4.572h11.176v-3.556h-11.176v-4.2333l0.22521-1.6369 3.3308-0.22572h9.144v-3.556h-16.933m22.183 0v23.199h4.2333v-15.579l3.2834 3.8947 6.0621 7.4507 3.5238 4.1111 3.556 0.12226v-23.199h-4.2333v15.579l-2.8888-3.3867-6.753-8.2973-3.2275-3.7724-3.556-0.12229m23.876 0v3.556h7.62v19.643h4.4027v-19.643h7.62v-3.556h-19.643m22.86 0v23.199h4.4027v-23.199h-4.4027m38.439 0v23.199h4.2333v-15.579l3.4527 4.064 6.0621 7.4507 3.3545 3.9417 3.556 0.12226v-23.199h-4.2333v15.579l-9.4725-11.515-3.2935-3.9417-3.6593-0.12229m-315.64 1.1007c-1.8859 0.63451-1.4226 3.4644 0.33867 3.9087 1.385 0.3495 3.1463 0.07061 4.572 0.07061h9.3133c1.4525 0 3.7854 0.44111 5.0753-0.32461 1.4065-0.83481 1.1589-3.35-0.50326-3.6971-1.3115-0.27386-2.8937-0.04233-4.2333-0.04233h-8.8053c-1.6931 0-4.1518-0.45551-5.7573 0.08467m95.673 2.3236c7.8747-1.0937 12.329 9.7902 6.096 14.624-1.31 1.0158-2.9286 1.5863-4.572 1.7499-7.068 0.70341-11.465-7.8283-7.2107-13.363 1.3868-1.8048 3.4888-2.7051 5.6867-3.0104m202.18 0c7.5794-1.0526 11.804 8.7212 6.7598 14.012-1.3868 1.4544-3.4476 2.1665-5.4051 2.3614-6.7547 0.67225-10.92-7.1345-7.554-12.686 1.3598-2.2437 3.6949-3.3399 6.1993-3.6877m-292.27 8.1703c-1.6344 0.49682-1.8606 2.9831-0.33867 3.7677 0.69606 0.35882 1.6132 0.21641 2.3707 0.21641 1.9355 0 4.975 0.57607 6.7733-0.1458 1.6195-0.65007 1.7331-3.2062 0-3.8335-0.73152-0.26484-1.7706-0.08467-2.54-0.08467-1.8771 0-4.4692-0.466-6.2653 0.07992z" fill="#fbc315"/>
 </g>
</svg>
